# xmcd CD database file
#
# Track frame offsets:
#	150
#	14708
#	27283
#	39021
#	50522
#	64395
#	78604
#	92690
#	106205
#	118811
#	129115
#	144444
#	156687
#	171075
#	184276
#	199413
#	213763
#	223391
#	234948
#	248185
#	262154
#	271779
#
# Disc length: 3841 seconds
#
# Revision: 0
# Processed by: cddbd v1.5.2PL0 Copyright (c) Steve Scherf et al.
# Submitted via: CDex 1.51
#
DISCID=480eff16
DTITLE=Muddy Waters - Legends Jazz and Blues
DYEAR=2004
DGENRE=Jazz
TTITLE0=Streamline Woman
TTITLE1=Train Fare Home Blues
TTITLE2=You Gonna Miss Me
TTITLE3=Little Anna Mea
TTITLE4=Take A Walk With Me
TTITLE5=I Feel Like Going Home
TTITLE6=Rolling Stone
TTITLE7=Rollin And Tumblin
TTITLE8=Little Geneva
TTITLE9=Mean Red Spider
TTITLE10=Country Blues
TTITLE11=I Can't Be Satisfied
TTITLE12=I Be Bound To Write To You
TTITLE13=Burr Clover Farm Blues
TTITLE14=32 20 Blues
TTITLE15=Burr Clover Blues
TTITLE16=Why Don't You Live So God Can Use You
TTITLE17=Gypsy Woman
TTITLE18=Walkin Blues
TTITLE19=I Be's Troubled
TTITLE20=You Got To Take Sick And Die Some Of These Days
TTITLE21=Youre Gonna Miss Me When I'm Gone
EXTD=YEAR: 2004
EXTT0=
EXTT1=
EXTT2=
EXTT3=
EXTT4=
EXTT5=
EXTT6=
EXTT7=
EXTT8=
EXTT9=
EXTT10=
EXTT11=
EXTT12=
EXTT13=
EXTT14=
EXTT15=
EXTT16=
EXTT17=
EXTT18=
EXTT19=
EXTT20=
EXTT21=
PLAYORDER=
